<svg width="32" height="32" viewBox="0 0 32 32" fill="none" xmlns="http://www.w3.org/2000/svg">
<g clip-path="url(#clip0_2277_14196)">
<path d="M28.0007 15H17.0007V4C17.0007 3.73478 16.8953 3.48043 16.7078 3.29289C16.5202 3.10536 16.2659 3 16.0007 3C15.7354 3 15.4811 3.10536 15.2935 3.29289C15.106 3.48043 15.0007 3.73478 15.0007 4V15H4.00066C3.73544 15 3.48109 15.1054 3.29355 15.2929C3.10601 15.4804 3.00066 15.7348 3.00066 16C2.99572 16.13 3.0187 16.2595 3.06805 16.3798C3.1174 16.5001 3.19197 16.6085 3.28673 16.6976C3.3815 16.7867 3.49425 16.8544 3.61741 16.8962C3.74056 16.938 3.87124 16.953 4.00066 16.94H15.0007V28C15.0007 28.2652 15.106 28.5196 15.2935 28.7071C15.4811 28.8946 15.7354 29 16.0007 29C16.2659 29 16.5202 28.8946 16.7078 28.7071C16.8953 28.5196 17.0007 28.2652 17.0007 28V17H28.0007C28.2659 17 28.5202 16.8946 28.7078 16.7071C28.8953 16.5196 29.0007 16.2652 29.0007 16C29.0007 15.7348 28.8953 15.4804 28.7078 15.2929C28.5202 15.1054 28.2659 15 28.0007 15Z" fill="white"/>
</g>
<defs>
<clipPath id="clip0_2277_14196">
<rect width="32" height="32" fill="white"/>
</clipPath>
</defs>
</svg>
