<svg width="30" height="31" viewBox="0 0 30 31" fill="none" xmlns="http://www.w3.org/2000/svg">
<path d="M22 8.5C22 9.6001 21.0996 10.5 20 10.5C18.9004 10.5 18 9.6001 18 8.5C18 7.3999 18.9004 6.5 20 6.5C21.0996 6.5 22 7.3999 22 8.5ZM30 3.5V22.1299L25.71 17.1299C25 16.2998 24.04 15.8398 23 15.8398C21.96 15.8398 21 16.2998 20.29 17.1299L17.0596 20.8901L12.75 14.96C11.7803 13.6201 10.4404 12.8701 8.96973 12.8398C7.49023 12.8198 6.13965 13.5098 5.12012 14.8101L0 21.3101V3.5C0 1.8501 1.34961 0.5 3 0.5H27C28.6504 0.5 30 1.8501 30 3.5ZM24 8.5C24 6.29004 22.21 4.5 20 4.5C17.79 4.5 16 6.29004 16 8.5C16 10.71 17.79 12.5 20 12.5C22.21 12.5 24 10.71 24 8.5ZM21.8096 18.4302L17.7598 23.1499C17.5596 23.3799 17.2695 23.5098 16.96 23.5C16.6504 23.4902 16.3701 23.3398 16.1904 23.0898L11.1299 16.1299C10.54 15.3198 9.75977 14.8599 8.94043 14.8398C8.11035 14.8398 7.32031 15.25 6.69043 16.0498L0 24.5601V27.5C0 29.1499 1.34961 30.5 3 30.5H27C28.6504 30.5 30 29.1499 30 27.5V25.21L24.1904 18.4302C23.54 17.6699 22.46 17.6699 21.8096 18.4302Z" fill="url(#paint0_linear_2277_14314)"/>
<defs>
<linearGradient id="paint0_linear_2277_14314" x1="13.2303" y1="-9.76316" x2="25.8869" y2="53.5642" gradientUnits="userSpaceOnUse">
<stop stop-color="#FF9B63"/>
<stop offset="1" stop-color="#FF621F"/>
</linearGradient>
</defs>
</svg>
