<svg width="200" height="109" viewBox="0 0 200 109" fill="none" xmlns="http://www.w3.org/2000/svg">
<path d="M59.3228 10.24H50.4908L45.3068 40H33.1468L38.3308 10.24H29.5628L31.4188 0H61.1788L59.3228 10.24ZM31.1628 39.808L4.02675 36.928H31.6748L31.1628 39.808ZM33.3388 27.456L6.20275 24.576H33.8508L33.3388 27.456ZM34.4268 21.312L7.29075 18.432H34.9388L34.4268 21.312ZM35.5148 15.168L8.37875 12.288H36.0268L35.5148 15.168ZM32.2508 33.6L5.11475 30.72H32.7628L32.2508 33.6ZM27.8348 9.024L0.69875 6.144H28.2828L27.8348 9.024ZM28.8588 2.88L1.78675 0H29.3708L28.8588 2.88ZM92.3828 40L92.1268 34.816H84.0628L82.0788 40H71.0068L85.2148 6.144H101.087L103.583 40H92.3828ZM92.1268 25.664V15.936H91.2308L87.4548 25.664H92.1268ZM68.9588 39.744L42.7188 36.928H70.1748L68.9588 39.744ZM71.5828 33.536L45.3427 30.72H72.7988L71.5828 33.536ZM74.2068 27.392L47.9667 24.576H75.3588L74.2068 27.392ZM76.7668 21.248L50.5907 18.432H77.9828L76.7668 21.248ZM79.3908 15.104L53.2147 12.288H80.5428L79.3908 15.104ZM81.9508 8.896L55.8387 6.144H83.1028L81.9508 8.896ZM91.9867 36.928H119.635L118.739 39.808L91.9867 36.928ZM124.499 12.288C124.243 12.9707 123.965 13.9307 123.667 15.168L96.9147 12.288H124.499ZM122.899 20.8V21.312L95.7627 18.432H123.027C122.941 19.456 122.899 20.2453 122.899 20.8ZM120.787 33.536L94.0987 30.72H121.683L120.787 33.536ZM128.915 6.144C127.763 6.99733 126.888 7.89333 126.291 8.832L101.331 6.144H128.915ZM123.475 24.576C123.859 25.6853 124.477 26.6453 125.331 27.456L98.2587 24.576H123.475ZM149.011 16.192C146.109 15.5093 143.635 15.168 141.587 15.168C139.539 15.168 138.024 15.232 137.043 15.36L136.723 17.216L139.923 17.6C146.792 18.496 150.227 21.3333 150.227 26.112C150.227 26.6667 150.099 27.712 149.843 29.248C149.587 30.7413 149.16 32.192 148.563 33.6C147.965 35.008 147.197 36.16 146.259 37.056C145.363 37.9093 144.467 38.6133 143.571 39.168C142.717 39.68 141.608 40.0427 140.243 40.256C138.109 40.5973 135.251 40.768 131.667 40.768C128.125 40.768 124.541 40.2773 120.915 39.296L124.051 29.824C127.379 30.7627 130.28 31.232 132.755 31.232C135.272 31.232 137.043 31.168 138.067 31.04L138.387 28.992L134.355 28.544C130.899 28.16 128.445 27.3493 126.995 26.112C125.544 24.8747 124.819 23.104 124.819 20.8C124.819 19.9467 124.925 18.88 125.139 17.6C125.992 13.0347 127.528 9.87733 129.747 8.128C131.965 6.37866 135.336 5.504 139.859 5.504C144.424 5.504 148.499 5.952 152.083 6.848L149.011 16.192ZM182.276 40L179.268 28.928H178.884L176.964 40H166.212L172.1 6.144H182.916L181.06 16.512H181.38L187.972 6.144H199.684L188.932 22.72L193.988 40H182.276ZM164.1 39.808L136.964 36.928H164.612L164.1 39.808ZM166.276 27.456L139.14 24.576H166.788L166.276 27.456ZM167.364 21.312L140.228 18.432H167.876L167.364 21.312ZM168.452 15.168L141.316 12.288H168.964L168.452 15.168ZM169.54 9.024L142.404 6.144H169.988L169.54 9.024ZM165.188 33.6L138.052 30.72H165.7L165.188 33.6ZM67.8785 98.336H59.9425L58.2785 108H46.1185L53.1585 68H72.3585C79.6118 68 83.2385 71.3707 83.2385 78.112C83.2385 81.312 82.7905 84.2133 81.8945 86.816C80.9985 89.376 79.9958 91.424 78.8865 92.96C77.8198 94.4533 76.3265 95.7333 74.4065 96.8C72.5292 97.824 70.3532 98.336 67.8785 98.336ZM64.5505 88.096C66.0012 88.096 67.0892 87.9467 67.8145 87.648C68.5825 87.3067 69.0732 86.56 69.2865 85.408C69.8412 82.2507 70.1185 80.5227 70.1185 80.224C70.1185 79.4133 69.7985 78.88 69.1585 78.624C68.5185 78.368 67.5585 78.24 66.2785 78.24H63.4625L61.7345 88.096H64.5505ZM44.1985 107.808L17.0625 104.928H44.7105L44.1985 107.808ZM46.3745 95.456L19.2385 92.576H46.8865L46.3745 95.456ZM48.4865 83.168L21.4145 80.288H48.9985L48.4865 83.168ZM49.5745 77.024L22.5025 74.144H50.0865L49.5745 77.024ZM45.2865 101.6L18.1505 98.72H45.7985L45.2865 101.6ZM50.6625 70.88L23.5905 68H51.1745L50.6625 70.88ZM47.3985 89.312L20.3265 86.432H47.9105L47.3985 89.312ZM117.45 74.144C123.679 74.144 126.794 76.96 126.794 82.592C126.794 85.152 126.282 87.8187 125.258 90.592C124.234 93.3227 122.506 95.3707 120.074 96.736L123.722 108H111.754L109.322 98.144H107.786L106.058 108H95.306L101.194 74.144H117.45ZM115.082 85.216C115.082 85.1733 115.103 84.96 115.146 84.576C115.146 83.8507 114.015 83.488 111.754 83.488H110.346L109.322 89.376H111.37C113.333 89.376 114.442 88.736 114.698 87.456L115.082 85.216ZM93.194 107.808L66.058 104.928H93.706L93.194 107.808ZM95.37 95.456L68.234 92.576H95.882L95.37 95.456ZM96.458 89.312L69.322 86.432H96.97L96.458 89.312ZM97.546 83.168L70.41 80.288H98.058L97.546 83.168ZM98.634 77.024L71.498 74.144H99.082L98.634 77.024ZM94.282 101.6L67.146 98.72H94.794L94.282 101.6ZM160.951 73.504C165.559 73.504 168.844 74.4 170.807 76.192C172.77 77.9413 173.751 80.6933 173.751 84.448C173.751 86.2827 173.516 88.5013 173.047 91.104C171.98 97.248 170.103 101.728 167.415 104.544C164.727 107.36 160.503 108.768 154.743 108.768C150.22 108.768 146.999 107.893 145.079 106.144C143.159 104.352 142.199 101.6 142.199 97.888C142.199 95.968 142.434 93.7067 142.903 91.104C143.97 84.96 145.826 80.5013 148.471 77.728C151.116 74.912 155.276 73.504 160.951 73.504ZM156.599 99.04C157.836 99.04 158.754 98.8907 159.351 98.592C159.991 98.2933 160.418 97.632 160.631 96.608L163.063 83.232H159.159C157.964 83.232 157.026 83.3813 156.343 83.68C155.703 83.9787 155.319 84.6187 155.191 85.6L152.823 99.04H156.599ZM140.663 92.576C140.492 93.8987 140.386 94.7947 140.343 95.264L115.127 92.576H140.663ZM141.879 86.432L141.303 89.12L116.279 86.432H141.879ZM140.279 98.72C140.279 99.4027 140.364 100.299 140.535 101.408L115.383 98.72H140.279ZM144.119 80.288C143.607 81.3973 143.244 82.2507 143.031 82.848L118.839 80.288H144.119ZM141.623 104.928C142.135 105.952 142.69 106.741 143.287 107.296L120.951 104.928H141.623ZM149.687 74.144C148.663 74.7413 147.788 75.4453 147.063 76.256L127.415 74.144H149.687Z" fill="url(#paint0_linear_2041_2571)"/>
<defs>
<linearGradient id="paint0_linear_2041_2571" x1="94.0281" y1="-63.5263" x2="136.744" y2="228.782" gradientUnits="userSpaceOnUse">
<stop stop-color="#FF9B63"/>
<stop offset="1" stop-color="#FF621F"/>
</linearGradient>
</defs>
</svg>
